<?xml version="1.0" standalone="no"?>
<!DOCTYPE svg PUBLIC "-//W3C//DTD SVG 20010904//EN"
 "http://www.w3.org/TR/2001/REC-SVG-20010904/DTD/svg10.dtd">
<svg version="1.0" xmlns="http://www.w3.org/2000/svg"
 width="1182.000000pt" height="968.000000pt" viewBox="0 0 1182.000000 968.000000"
 preserveAspectRatio="xMidYMid meet">

<g transform="translate(0.000000,968.000000) scale(0.100000,-0.100000)"
fill="#000000" stroke="none">
<path d="M0 4840 l0 -4840 5910 0 5910 0 0 4840 0 4840 -5910 0 -5910 0 0
-4840z m559 4147 l55 -138 54 141 55 140 53 0 54 0 0 -205 0 -205 -40 0 -39 0
-3 127 -3 128 -50 -128 c-49 -125 -50 -127 -82 -127 -31 0 -32 2 -80 122 l-48
122 -3 -122 -3 -122 -44 0 -45 0 0 205 0 206 57 -3 57 -3 55 -138z m931 78 l0
-65 25 16 c31 20 86 22 119 5 43 -24 56 -67 56 -190 l0 -111 -44 0 -44 0 -4
106 c-3 91 -6 108 -22 120 -27 19 -42 18 -66 -6 -17 -17 -20 -33 -20 -120 l0
-100 -45 0 -45 0 0 205 0 205 45 0 45 0 0 -65z m-190 0 c0 -32 2 -35 30 -35
28 0 30 -3 30 -35 0 -32 -2 -35 -30 -35 l-30 0 0 -74 c0 -77 13 -106 46 -106
11 0 14 -9 12 -32 -3 -32 -4 -33 -51 -32 -77 1 -91 22 -95 144 -4 90 -6 100
-23 100 -15 0 -19 7 -19 35 0 28 4 35 20 35 16 0 20 7 20 35 0 35 0 35 45 35
45 0 45 0 45 -35z m550 0 c0 -31 3 -35 25 -35 22 0 25 -4 25 -35 0 -31 -3 -35
-25 -35 -25 0 -25 -1 -25 -85 0 -82 1 -85 25 -91 21 -5 25 -12 25 -41 l0 -36
-52 6 c-80 10 -91 27 -96 147 -4 90 -6 100 -23 100 -15 0 -19 7 -19 35 0 28 4
35 20 35 16 0 20 7 20 35 l0 35 50 0 50 0 0 -35z m-794 -35 c13 0 38 -13 56
-29 l33 -29 4 -126 3 -126 -46 0 c-35 0 -46 4 -46 15 0 13 -3 13 -26 -1 -38
-26 -109 -23 -139 6 -48 45 -41 116 15 145 18 9 58 19 90 23 54 7 57 8 49 30
-10 26 -59 31 -79 7 -17 -21 -90 -20 -90 1 0 24 18 52 43 66 29 15 79 27 95
22 8 -2 24 -4 38 -4z m1448 -19 c46 -38 61 -165 28 -231 -32 -65 -125 -87
-174 -43 -17 15 -18 12 -18 -51 l0 -67 -47 3 -48 3 0 200 0 200 48 3 c38 3 47
0 47 -14 0 -13 3 -14 14 -5 35 30 116 30 150 2z m319 -9 c30 -27 47 -68 47
-112 l0 -40 -100 0 c-105 0 -115 -5 -86 -45 17 -23 69 -24 94 -2 10 10 35 17
55 17 48 0 49 -22 2 -65 -75 -72 -196 -51 -244 42 -27 52 -7 167 36 205 43 38
154 38 196 0z m-804 -6 c5 -19 17 -67 27 -105 10 -39 21 -71 24 -71 4 0 12 23
19 52 6 28 18 75 27 105 l15 53 45 0 c29 0 44 -4 44 -13 0 -19 -94 -297 -114
-334 -21 -41 -63 -63 -121 -63 -45 0 -45 0 -45 35 0 28 4 35 19 35 32 0 51 11
51 30 0 10 -22 82 -50 160 -27 78 -50 144 -50 146 0 2 22 4 50 4 47 0 49 -1
59 -34z m-1189 -936 c0 -120 -4 -190 -10 -190 -5 0 -10 16 -10 35 0 28 -4 35
-19 35 -45 0 -51 9 -51 76 0 50 -3 64 -15 64 -8 0 -15 6 -15 14 0 8 7 16 15
20 8 3 15 15 15 26 0 11 7 20 15 20 9 0 15 -9 15 -25 0 -18 5 -25 20 -25 18 0
20 7 20 70 0 40 4 70 10 70 6 0 10 -70 10 -190z m-322 103 c-2 -10 -10 -18
-18 -18 -8 0 -16 8 -18 18 -2 12 3 17 18 17 15 0 20 -5 18 -17z m-82 -45 c-3
-29 -6 -65 -6 -80 0 -18 -5 -28 -15 -28 -12 0 -15 16 -15 80 0 75 1 80 21 80
20 0 21 -4 15 -52z m252 -26 c7 -9 12 -45 12 -85 0 -60 -2 -68 -17 -65 -15 3
-19 16 -21 71 l-3 68 -32 -3 -32 -3 -3 -67 c-3 -60 -5 -68 -22 -68 -18 0 -20
7 -20 85 l0 84 35 -1 c19 -1 38 2 42 5 10 10 46 -3 61 -21z m-168 -67 c0 -78
-2 -85 -20 -85 -18 0 -20 7 -20 85 0 78 2 85 20 85 18 0 20 -7 20 -85z m-80
-66 c0 -12 -7 -19 -19 -19 -26 0 -36 17 -21 35 15 18 40 8 40 -16z m1037 -898
c-5 -22 -2 -28 10 -27 8 0 20 -7 27 -17 16 -25 -12 -71 -46 -75 -33 -4 -42 18
-28 70 6 21 8 48 5 58 -5 16 -2 20 16 20 18 0 21 -4 16 -29z m-87 -46 c13 -16
7 -45 -10 -45 -6 0 -14 10 -19 22 -7 20 -8 20 -15 2 -4 -10 -27 -120 -52 -244
-51 -259 -76 -349 -103 -374 -28 -25 -55 -17 -59 17 -3 23 0 28 15 25 10 -2
17 -12 16 -22 -1 -12 2 -15 9 -8 5 5 31 119 58 253 53 262 69 326 94 364 18
28 47 32 66 10z m-22 -571 c17 -5 21 -11 16 -28 -3 -11 -8 -30 -11 -41 l-5
-20 16 20 17 20 -3 -20 c-3 -16 -12 -21 -47 -23 -63 -5 -78 23 -40 72 22 28
23 29 57 20z m-29 -1233 c8 -14 7 -22 -4 -31 -12 -10 -16 -8 -23 10 -8 22 -9
22 -20 -6 -6 -16 -23 -92 -37 -169 -38 -205 -83 -387 -105 -423 -12 -19 -28
-32 -40 -32 -21 0 -45 34 -35 50 11 19 35 10 36 -12 2 -53 29 45 68 249 44
228 74 338 99 366 20 22 49 22 61 -2z m159 -5 c6 -30 -16 -43 -27 -15 l-9 24
-11 -27 c-5 -15 -24 -100 -41 -190 -66 -343 -96 -438 -139 -438 -24 0 -45 25
-37 45 8 22 25 18 35 -7 7 -21 9 -20 19 12 6 19 23 98 37 175 41 220 85 392
107 420 23 30 61 31 66 1z m58 -531 c20 -31 12 -68 -21 -101 -20 -20 -34 -24
-81 -24 -48 0 -55 2 -42 13 18 14 41 99 32 121 -5 13 3 16 45 16 43 0 53 -4
67 -25z m-287 -1264 c8 -14 7 -22 -4 -31 -12 -10 -16 -8 -23 10 -8 22 -9 22
-20 -6 -6 -16 -23 -92 -37 -169 -38 -205 -83 -387 -105 -423 -12 -19 -28 -32
-40 -32 -21 0 -45 34 -35 50 11 19 35 10 36 -12 2 -53 29 45 68 249 44 228 74
338 99 366 20 22 49 22 61 -2z m159 -5 c6 -30 -16 -43 -27 -15 l-9 24 -11 -27
c-5 -15 -24 -100 -41 -190 -66 -343 -96 -438 -139 -438 -24 0 -45 25 -37 45 8
22 25 18 35 -7 7 -21 9 -20 19 12 6 19 23 98 37 175 41 220 85 392 107 420 23
30 61 31 66 1z m151 5 c8 -14 7 -22 -4 -31 -12 -10 -16 -8 -23 11 -9 22 -9 22
-20 -11 -7 -19 -30 -128 -52 -242 -59 -302 -85 -378 -131 -378 -20 0 -39 28
-32 48 8 21 33 13 33 -10 1 -59 31 38 60 198 38 210 85 392 107 416 21 23 50
23 62 -1z m-29 -520 c0 -5 -4 -11 -9 -13 -4 -1 -6 -23 -2 -48 l6 -45 24 40
c13 22 24 48 23 58 0 12 7 17 24 17 13 0 24 -4 24 -10 0 -5 -4 -10 -10 -10 -5
0 -30 -33 -57 -72 -47 -73 -47 -73 -54 -43 -4 17 -7 49 -8 73 0 23 -5 42 -11
42 -5 0 -10 5 -10 10 0 6 14 10 30 10 17 0 30 -4 30 -9z"/>
<path d="M970 8832 c-21 -17 -22 -19 -5 -35 26 -27 77 -7 88 33 4 17 0 20 -28
20 -18 0 -43 -8 -55 -18z"/>
<path d="M2360 8940 c-43 -43 -16 -150 38 -150 56 1 83 91 41 144 -24 31 -52
33 -79 6z"/>
<path d="M2686 8944 c-27 -26 -18 -34 39 -34 38 0 55 4 55 13 0 36 -65 51 -94
21z"/>
<path d="M788 8083 c-27 -7 -25 -98 2 -113 19 -10 20 -8 20 55 0 36 -1 64 -2
64 -2 -1 -11 -3 -20 -6z"/>
<path d="M1457 7013 c-4 -3 -7 -20 -7 -36 0 -25 2 -28 15 -17 8 7 15 23 15 36
0 23 -10 31 -23 17z"/>
<path d="M1316 6414 c-9 -24 -7 -54 4 -54 12 0 30 33 30 54 0 21 -26 21 -34 0z"/>
<path d="M1460 4638 c-6 -24 -13 -51 -16 -60 -7 -24 27 -24 56 0 16 13 23 30
24 58 1 35 -1 39 -26 42 -24 3 -28 -1 -38 -40z"/>
</g>
</svg>
